<?xml version="1.0" encoding="UTF-8"?>
<!DOCTYPE svg PUBLIC "-//W3C//DTD SVG 1.1//EN" "http://www.w3.org/Graphics/SVG/1.1/DTD/svg11.dtd">
<!-- Creator: CorelDRAW 2018 -->
<svg xmlns="http://www.w3.org/2000/svg" xml:space="preserve" width="278.576mm" height="393.117mm" version="1.1" style="shape-rendering:geometricPrecision; text-rendering:geometricPrecision; image-rendering:optimizeQuality; fill-rule:evenodd; clip-rule:evenodd"
viewBox="0 0 27857.62 39311.69"
 xmlns:xlink="http://www.w3.org/1999/xlink">
 <defs>
  <style type="text/css">
   <![CDATA[
    .fil0 {fill:#183F67}
   ]]>
  </style>
 </defs>
 <g id="Слой_x0020_1">
  <metadata id="CorelCorpID_0Corel-Layer"/>
  <path class="fil0" d="M20485.16 0.01l0 6909.73 -3382.84 0 0 3715.17c-452.38,563.9 -301.72,1043.68 376.32,1546.67 649.19,481.61 580.61,840.82 -115.65,1011.87 -804.11,197.47 -935.63,1638.71 780.57,2905.62 1406.5,1038.3 2848.65,-163.11 3816.28,-2414.1 666.76,-1550.93 2185.55,-1960.42 3288.63,-1033.51 381.37,320.53 689.9,659.87 1712.92,599.82 -435.85,366.68 -1190.79,553.8 -1684.08,260.21 -1403.47,-835.12 -1822.74,-60.64 -2710.37,2341.79 -790.81,2140.59 -2700.48,2815.02 -4943.8,2370.71 762.61,1223.18 2223.84,1679.49 4278.87,1011.88 2250.66,-731.15 3645.16,-597.6 4307.72,751.66 246.71,587.63 796.05,1204.43 1647.89,1850.34 -850.86,173.48 -1621.21,-2.23 -1994.84,-722.81 -770.41,-1485.76 -1764.59,-1378.24 -3816.21,-375.8 -2489.7,1216.49 -4495.88,728.71 -5637.63,-549.34 227.1,992.93 1028.72,1829.75 2370.64,2573.09 2485.04,1376.46 3463.15,3457.52 2341.79,5926.76 -527.44,1161.36 -955.69,2158.16 -693.84,3324.76 -643.81,-1006.89 -807,-2152.78 -404.78,-3411.5 673.39,-2107.4 12.07,-3698.12 -2182.8,-4510.1 -1996.42,-738.55 -3333.74,-1926.92 -3911.14,-3859.55 -577.4,1932.63 -1914.72,3121 -3911.14,3859.55 -2194.87,811.98 -2856.19,2402.7 -2182.8,4510.1 402.22,1258.72 239.03,2404.61 -404.78,3411.5 261.85,-1166.6 -166.4,-2163.4 -693.84,-3324.76 -1121.36,-2469.24 -143.25,-4550.3 2341.79,-5926.76 1341.92,-743.34 2143.54,-1580.16 2370.64,-2573.09 -1141.75,1278.05 -3147.93,1765.83 -5637.63,549.34 -2051.62,-1002.44 -3045.8,-1109.96 -3816.21,375.8 -373.63,720.58 -1143.98,896.29 -1994.84,722.81 851.84,-645.91 1401.18,-1262.71 1647.89,-1850.34 662.56,-1349.26 2057.06,-1482.81 4307.72,-751.66 2055.03,667.61 3516.26,211.3 4278.87,-1011.88 -2243.32,444.31 -4152.99,-230.12 -4943.8,-2370.71 -887.63,-2402.43 -1306.9,-3176.91 -2710.37,-2341.79 -493.29,293.59 -1248.23,106.47 -1684.08,-260.21 1023.02,60.05 1331.55,-279.29 1712.92,-599.82 1103.08,-926.91 2621.87,-517.42 3288.63,1033.51 967.63,2250.99 2409.78,3452.4 3816.28,2414.1 1716.2,-1266.91 1584.68,-2708.15 780.57,-2905.62 -696.26,-171.05 -764.84,-530.26 -115.65,-1011.87 678.04,-502.99 828.7,-982.77 376.32,-1546.67l0 -3715.17 -3382.84 0 0 -6909.73 13112.7 0zm-9570.08 37235.61c1258.25,-1143.72 1588.82,-2473.64 394.74,-5223.55 -1030.95,-2374.38 -1581.87,-4733.87 -1184.82,-7256.74 279.09,-124.51 507.97,-194.46 686.62,-209.8 -298.83,2210.14 -102.14,4448.87 715.47,6671.15 1184.64,3219.85 975.63,6290.49 -1026.43,8095.01 -140.69,-617.79 -80.97,-1625.79 414.42,-2076.07zm6027.46 0c-1258.25,-1143.72 -1588.82,-2473.64 -394.74,-5223.55 1030.95,-2374.38 1581.87,-4733.87 1184.82,-7256.74 -279.09,-124.51 -507.97,-194.46 -686.62,-209.8 298.83,2210.14 102.14,4448.87 -715.47,6671.15 -1184.64,3219.85 -975.63,6290.49 1026.43,8095.01 140.69,-617.79 80.97,-1625.79 -414.42,-2076.07zm-9859.21 -37235.61l-158.98 0c-540.75,0 -983.03,442.28 -983.03,982.97l0 4943.79c0,540.69 442.28,982.97 983.03,982.97l158.98 0 0 -6909.73zm13690.96 0l158.98 0c540.75,0 983.03,442.28 983.03,982.97l0 4943.79c0,540.69 -442.28,982.97 -983.03,982.97l-158.98 0 0 -6909.73z"/>
 </g>
</svg>
